<?xml version="1.0" encoding="UTF-8"?> <svg xmlns="http://www.w3.org/2000/svg" viewBox="0 0 159.98 53.17"><defs><style>.d{fill:#fff;}.e{fill:#f8bb60;fill-rule:evenodd;}</style></defs><g id="a"></g><g id="b"><g id="c"><g><g><path class="d" d="M59.77,22.26c.52,.38,.99,.37,1.36-.02,.31-.33,.5-.73,.54-1.19,.08-.77-.09-1.41-.83-1.81-.26-.14-.51-.3-.77-.45-.68-.37-1.3-.83-1.85-1.37-.73-.71-1.03-1.56-.85-2.58,.15-.87,.48-1.66,1.14-2.26,.86-.78,1.9-1.05,3.05-.89,.77,.11,1.48,.43,2.17,.77,.89,.44,1.13,1.58,.55,2.36-.47,.63-1.52,.83-2.16,.42-.67-.44-.91-1.39-.52-2.12,.12-.23,.29-.44,.43-.65-.03-.24-.2-.3-.37-.34-.35-.09-.64,.01-.9,.25-.6,.54-1.03,2-.11,2.88,.28,.26,.59,.49,.91,.7,.45,.29,.92,.54,1.37,.82,.25,.16,.49,.33,.71,.52,.73,.64,.96,1.46,.82,2.4-.09,.62-.29,1.2-.62,1.74-.36,.57-.84,.99-1.46,1.24-.85,.35-1.72,.47-2.6,.18-.56-.19-1.12-.39-1.65-.64-.67-.32-.99-.92-.9-1.58,.11-.75,.63-1.32,1.36-1.44,.57-.1,1.06,.11,1.41,.56,.47,.6,.46,1.51,.01,2.15-.08,.12-.16,.23-.24,.35Z"></path><path class="d" d="M73.55,12.23c0-.07,.08-.1,.31-.11,.4-.01,.82,0,1.23-.02,.46,0,.91-.03,1.37-.02,.55,0,1.37-.18,1.36,.61-.02,1.74-.05,3.49-.07,5.23,0,.95,0,1.89,.02,2.84,0,.09,0,.18,.02,.26,.04,.2,.26,.35,.47,.29,.23-.06,.72-.35,.82,.04,.07,.27-.41,.66-.58,.83-.54,.51-1.22,.85-1.97,.9-.7,.05-1.35-.13-1.9-.59-.2-.17-.41-.33-.65-.52-.15,.07-.32,.12-.46,.21-.69,.49-1.48,.72-2.29,.92-.5,.12-1,.12-1.5,.03-1.01-.18-1.66-.78-1.86-1.78-.15-.75-.24-1.52-.29-2.28-.06-.94-.04-1.89-.05-2.84,0-.71,0-1.42-.02-2.13-.02-.98-.04-1.01-.71-1.71,.02-.2,.17-.22,.32-.22,.92,0,1.83,0,2.75,0,.33,0,.65,0,.98,.01,.58,.02,.65,.09,.65,.7,0,.95-.02,1.89-.02,2.84,0,1.45,.02,2.9,.04,4.35,0,.67,.19,1.28,.61,1.82,.19,.24,.42,.32,.7,.24,.2-.06,.39-.15,.57-.25,.36-.2,.54-.5,.53-.94-.02-.95,0-1.89,0-2.84,0-1.09,.02-2.19,.02-3.28,0-.49,.02-.99-.07-1.47-.04-.19-.05-.46-.11-.63-.08-.24-.19-.39-.18-.47Z"></path><path class="d" d="M88.41,22.88c-.09,0-.19,0-.28,.01,.25-.36,.46-.63,.51-1.07,.04-.29,0-.59,0-.89,0-1.74,0-3.49,0-5.23,0-.33,0-.65-.02-.98-.03-.58-.24-1.09-.59-1.55-.21-.27-.46-.37-.78-.23-.27,.11-.52,.28-.76,.44-.18,.12-.26,.31-.26,.54,0,.18,0,.35,0,.53-.01,1.74-.03,3.49-.03,5.23,0,.62,.03,1.24,.04,1.86,0,.3,.01,.59,0,.89-.03,.36-.15,.47-.5,.5-.38,.02-.77,.03-1.15,.03-.86-.01-1.71-.01-2.57-.01-.05,0-.12,0-.14-.06-.01-.03,0-.07,.02-.1,.13-.27,.3-.38,.38-.69,.08-.32,.08-.67,.08-1,0-1.33,.04-2.66,.05-3.99,0-.86,0-1.71,0-2.57,0-.23-.05-.47-.12-.69-.13-.39-.43-.62-.81-.77-.09-.03-.19-.16-.19-.25-.01-.18,.16-.23,.3-.26,.11-.03,.23-.03,.35-.04,.75,0,1.5-.02,2.25-.03,.53,0,1.46-.21,1.83,.19,.09,.1,.05,.3,.21,.36,.18,.07,.59-.29,.73-.37,.62-.36,1.31-.56,2.01-.73,.53-.13,1.05-.11,1.58,0,.9,.18,1.51,.72,1.72,1.59,.18,.77,.27,1.57,.33,2.37,.06,.79,.04,1.6,.05,2.39,.01,1.09,.02,2.19,.03,3.28,0,.18,0,.36,0,.53-.03,.61-.12,.73-.74,.74-1.17,.02-2.34-.02-3.51,.03Z"></path><path class="d" d="M100.7,13.08c-.62,.33-.87,.71-.87,1.27,0,.86-.01,1.71-.01,2.57,0,1.3,0,2.6,0,3.9,0,.3,.03,.59,.03,.89,0,.24,.01,.47,0,.71-.08,.89-1.72,.66-2.38,.64-.15,0-2.13-.12-2.13-.11,.08-.26,.35-.39,.47-.63,.15-.32,.13-.78,.13-1.12,0-1.54,.04-3.07,.05-4.61,0-.65-.03-1.3-.02-1.95,0-.72-.22-1.27-.94-1.55-.05-.02-.09-.07-.13-.11-.07-.06-.03-.28,.06-.31,.17-.05,.34-.11,.51-.11,.84-.01,1.67-.13,2.5-.1,.4,.01,.8,.05,1.19,.16,.13,.04,.78,.42,.87,.36,.56-.33,1.12-.67,1.74-.88,.53-.19,1.05-.17,1.54,.1,1.07,.58,1.27,2,.44,2.87-.73,.76-2.4,.67-2.84-.49-.12-.31-.24-.6-.21-.94,0-.15,0-.29,0-.57Z"></path><g><path class="d" d="M111.4,22c0-.74-.05-1.48-.05-2.22,0-1.92,.02-3.85,.04-5.77,0-.75-.12-1.21-.89-1.29-.51-.05-1.01,.02-1.52,.02-.77,0-1.55,0-2.31,.1-.08,.01-.14,.08-.19,.11-.04,.26,.13,.35,.28,.43,.55,.31,.75,.8,.75,1.4,0,.71,.03,1.42,.02,2.13-.01,1.45-.05,2.9-.05,4.35,0,.33,0,.67-.07,1-.05,.29-.3,.52-.33,.78-.02,.19,3.76,.12,4.13,.05,.27-.33,.19-.73,.18-1.11h0Z"></path><path class="d" d="M109.23,11.78c1.08,.03,1.85-.7,1.85-1.8,.07-1.01-.91-1.81-1.8-1.79-1.02,.02-1.76,.69-1.75,1.71,0,.88,.52,1.85,1.7,1.89Z"></path></g><path class="d" d="M116.15,22.26c.52,.38,.99,.37,1.36-.02,.31-.33,.5-.73,.54-1.19,.08-.77-.09-1.41-.83-1.81-.26-.14-.51-.3-.77-.45-.68-.37-1.3-.83-1.85-1.37-.73-.71-1.03-1.56-.85-2.58,.15-.87,.48-1.66,1.14-2.26,.86-.78,1.9-1.05,3.05-.89,.77,.11,1.48,.43,2.17,.77,.89,.44,1.13,1.58,.55,2.36-.47,.63-1.52,.83-2.16,.42-.67-.44-.91-1.39-.52-2.12,.12-.23,.29-.44,.43-.65-.03-.24-.2-.3-.37-.34-.35-.09-.64,.01-.9,.25-.6,.54-1.03,2-.11,2.88,.28,.26,.59,.49,.91,.7,.45,.29,.92,.54,1.37,.82,.25,.16,.49,.33,.71,.52,.73,.64,.96,1.46,.82,2.4-.09,.62-.29,1.2-.62,1.74-.36,.57-.84,.99-1.46,1.24-.85,.35-1.72,.47-2.6,.18-.56-.19-1.12-.39-1.65-.64-.67-.32-.99-.92-.9-1.58,.11-.75,.63-1.32,1.36-1.44,.57-.1,1.06,.11,1.41,.56,.47,.6,.46,1.51,.01,2.15-.08,.12-.16,.23-.24,.35Z"></path><path class="d" d="M128.81,16.72c.03-.19,.07-.33,.07-.48-.03-.82-.05-1.65-.12-2.46-.03-.28-.18-.56-.33-.8-.24-.38-.67-.37-.96-.03-.32,.38-.46,.83-.5,1.3-.07,.79-.14,1.58-.03,2.37,0,.05,.06,.1,.09,.14,.6,.13,1.05,.12,1.79-.05Zm3.36,.58c-.38,.21-.77,.2-1.15,.21-1.07,.02-2.13,.03-3.2,.05-.29,0-.6-.03-.87,.16-.15,.33-.08,.69-.02,1.04,.07,.41,.17,.81,.32,1.2,.57,1.46,1.97,2.11,3.46,1.64,.34-.11,.67-.23,1.01-.34,.02,0,.06,0,.09,.01,.14,.09,.08,.21,.02,.3-.25,.35-.59,.59-.96,.77-1.08,.55-2.22,.8-3.44,.6-.2-.03-.41-.05-.62-.09-1.17-.22-2.08-.81-2.69-1.84-.78-1.32-1.11-2.73-.88-4.26,.08-.55,.15-1.12,.31-1.65,.78-2.57,3.77-3.95,6.33-2.79,.99,.45,1.67,1.2,2.04,2.23,.27,.76,.38,1.55,.35,2.35,0,.14-.06,.28-.09,.41Z"></path><path class="d" d="M60.13,42.16c.57,.42,1.09,.41,1.49-.03,.34-.37,.55-.8,.6-1.31,.09-.84-.1-1.55-.91-1.99-.29-.15-.56-.34-.84-.49-.75-.41-1.43-.91-2.03-1.51-.8-.79-1.13-1.72-.93-2.84,.17-.96,.52-1.83,1.25-2.48,.95-.85,2.1-1.16,3.36-.98,.85,.12,1.63,.47,2.38,.85,.97,.49,1.24,1.74,.61,2.59-.52,.7-1.67,.92-2.37,.46-.74-.48-1-1.53-.58-2.33,.14-.25,.32-.48,.47-.71-.03-.27-.22-.33-.41-.37-.38-.1-.71,.01-.99,.27-.66,.59-1.14,2.2-.12,3.17,.3,.29,.65,.54,1.01,.77,.49,.32,1.01,.59,1.51,.9,.27,.17,.54,.36,.79,.58,.8,.71,1.06,1.61,.91,2.64-.1,.68-.31,1.32-.69,1.91-.39,.63-.93,1.09-1.61,1.37-.93,.38-1.89,.52-2.86,.2-.62-.2-1.23-.43-1.82-.7-.74-.35-1.09-1.01-.99-1.74,.12-.83,.69-1.45,1.5-1.59,.63-.1,1.17,.12,1.56,.61,.51,.66,.5,1.66,.01,2.37-.09,.13-.18,.26-.27,.38Z"></path><path class="d" d="M75.77,31.13c0-.08,.09-.11,.34-.12,.44-.01,.9-.01,1.35-.02,.5,0,1-.03,1.5-.02,.61,0,1.5-.19,1.5,.67-.02,1.92-.06,3.84-.08,5.75,0,1.04,.01,2.08,.02,3.12,0,.1,0,.19,.02,.29,.04,.22,.29,.38,.52,.32,.25-.07,.79-.38,.9,.04,.08,.3-.45,.73-.64,.91-.6,.57-1.34,.93-2.17,.99-.77,.06-1.48-.14-2.09-.65-.22-.19-.46-.36-.72-.57-.17,.07-.36,.13-.51,.23-.76,.53-1.63,.8-2.52,1.01-.55,.13-1.09,.13-1.65,.03-1.11-.2-1.83-.86-2.05-1.95-.17-.83-.27-1.67-.32-2.51-.06-1.04-.04-2.08-.06-3.12,0-.78,0-1.56-.02-2.34-.02-1.08-.05-1.12-.78-1.88,.02-.22,.19-.24,.35-.24,1.01,0,2.02,0,3.03,0,.36,0,.72,0,1.07,.01,.64,.03,.71,.1,.71,.76,0,1.04-.02,2.08-.02,3.12,0,1.59,.02,3.19,.04,4.78,0,.74,.21,1.41,.67,2,.21,.27,.47,.35,.77,.26,.22-.06,.43-.16,.62-.27,.4-.23,.59-.55,.58-1.04-.02-1.04,0-2.08,0-3.12,0-1.2,.03-2.41,.02-3.61,0-.54,.02-1.09-.08-1.62-.04-.21-.06-.5-.12-.7-.08-.26-.21-.43-.2-.52Z"></path><path class="d" d="M92.61,42.84c-.1,0-.21,0-.31,.02,.27-.39,.5-.69,.57-1.18,.04-.32,0-.65,0-.97,0-1.92,0-3.84,0-5.75,0-.36,0-.72-.02-1.07-.03-.64-.26-1.2-.65-1.71-.23-.3-.51-.4-.86-.25-.29,.13-.57,.31-.83,.49-.19,.13-.29,.34-.28,.59,0,.19,0,.39,0,.59-.01,1.92-.03,3.84-.03,5.76,0,.68,.03,1.37,.04,2.05,0,.32,.01,.65,0,.97-.03,.39-.16,.52-.55,.54-.42,.03-.85,.04-1.27,.03-.95-.01-1.88-.01-2.83-.02-.06,0-.13,0-.15-.06-.02-.04,0-.08,.02-.11,.14-.3,.33-.42,.41-.76,.09-.36,.09-.73,.09-1.1,0-1.46,.04-2.92,.05-4.39,0-.94,0-1.89,0-2.83,0-.26-.05-.52-.13-.76-.14-.43-.47-.68-.89-.84-.1-.04-.2-.18-.21-.28-.01-.2,.17-.25,.33-.28,.13-.03,.26-.04,.39-.04,.82-.01,1.65-.02,2.47-.03,.58,0,1.6-.24,2.01,.21,.1,.11,.06,.33,.23,.4,.2,.07,.64-.32,.8-.41,.69-.4,1.44-.62,2.21-.8,.58-.14,1.16-.12,1.74,0,.99,.2,1.66,.79,1.89,1.75,.2,.85,.3,1.73,.36,2.6,.07,.87,.04,1.75,.06,2.63,.02,1.2,.03,2.41,.04,3.61,0,.2,0,.39,0,.59-.03,.67-.13,.8-.81,.81-1.29,.02-2.58-.02-3.86,.03h0Z"></path><path class="d" d="M103,42.16c.57,.42,1.09,.41,1.49-.03,.34-.37,.55-.8,.6-1.31,.09-.84-.1-1.55-.91-1.99-.29-.15-.56-.34-.84-.49-.75-.41-1.43-.91-2.03-1.51-.8-.79-1.13-1.72-.93-2.84,.17-.96,.52-1.83,1.25-2.48,.95-.85,2.1-1.16,3.36-.98,.85,.12,1.63,.47,2.38,.85,.97,.49,1.24,1.74,.61,2.59-.52,.7-1.67,.92-2.37,.46-.74-.48-1-1.53-.58-2.33,.14-.25,.32-.48,.47-.71-.03-.27-.22-.33-.41-.37-.38-.1-.71,.01-.99,.27-.66,.59-1.14,2.2-.12,3.17,.3,.29,.65,.54,1.01,.77,.49,.32,1.01,.59,1.51,.9,.27,.17,.54,.36,.79,.58,.8,.71,1.06,1.61,.91,2.64-.1,.68-.31,1.32-.69,1.91-.39,.63-.93,1.09-1.61,1.37-.93,.38-1.89,.52-2.86,.2-.62-.2-1.23-.43-1.82-.7-.74-.35-1.09-1.01-.99-1.74,.12-.83,.69-1.45,1.5-1.59,.63-.1,1.17,.12,1.56,.61,.51,.66,.5,1.66,.01,2.37-.09,.13-.18,.26-.27,.38Z"></path><path class="d" d="M117.42,36.07c.03-.21,.08-.37,.08-.52-.03-.9-.05-1.81-.13-2.71-.03-.3-.2-.61-.37-.88-.26-.42-.74-.41-1.06-.03-.35,.41-.5,.91-.55,1.43-.08,.87-.15,1.74-.03,2.61,0,.06,.06,.11,.1,.16,.66,.15,1.15,.14,1.97-.05Zm3.69,.64c-.42,.23-.84,.22-1.26,.23-1.17,.02-2.35,.03-3.52,.06-.32,0-.66-.04-.96,.17-.16,.37-.09,.76-.03,1.14,.08,.45,.19,.89,.35,1.32,.63,1.61,2.16,2.32,3.8,1.8,.37-.12,.74-.25,1.11-.37,.03,0,.06,0,.09,.01,.15,.1,.09,.24,.02,.33-.27,.38-.65,.64-1.05,.85-1.19,.6-2.44,.88-3.78,.66-.22-.04-.45-.06-.68-.1-1.28-.24-2.29-.89-2.96-2.03-.85-1.45-1.22-3-.97-4.68,.09-.61,.17-1.23,.35-1.82,.86-2.83,4.14-4.34,6.96-3.07,1.09,.49,1.84,1.32,2.24,2.46,.3,.84,.42,1.7,.39,2.59,0,.16-.07,.31-.1,.45Z"></path><path class="d" d="M128.77,25.35c.19,.62,.15,1.28,.12,1.92-.02,.46-.21,1,.31,1.23,.45,.2,.93,.04,1.28,.44,.3,.33,1.44,1.47,1.44,1.62,0,.12-.1,.23-.21,.27-.11,.05-.24,.05-.36,.05-.59,0-1.3-.11-1.88-.03-.43,.06-.39,.21-.4,.61-.01,.75-.03,1.5-.04,2.24-.03,1.53-.07,3.07-.07,4.6,0,.65,0,1.3,.02,1.95,.01,.57,.08,.77,.69,.66,.16-.03,.3-.1,.46-.14,.1-.03,.27,.15,.23,.25-.05,.15-.09,.32-.18,.44-.51,.6-1.12,1.09-1.88,1.35-1.38,.48-3.03-.02-3.67-1.68-.22-.58-.36-1.18-.41-1.8-.08-1.27-.1-2.53-.08-3.8,.03-1.66,0-3.32-.01-4.97,0-.16,.01-.33,0-.49-.08-.68,.19-1.18,.69-1.62,1.11-.95,2.21-1.92,3.31-2.88,.16-.14,.32-.34,.63-.24Z"></path><path class="d" d="M137.61,41.78c-.06,.85-.45,1.44-1.36,1.47-.79,.03-1.42-.61-1.44-1.4-.02-.72,.51-1.4,1.54-1.41,.71,0,1.26,.6,1.26,1.34Z"></path><g><path class="d" d="M145.92,41.87c0-.81-.05-1.63-.05-2.44,0-2.12,.03-4.23,.04-6.34,0-.82-.14-1.33-.98-1.41-.56-.05-1.11,.02-1.67,.02-.84,0-1.71,0-2.54,.11-.08,.01-.16,.09-.21,.13-.05,.29,.15,.38,.31,.47,.61,.34,.83,.87,.83,1.55,0,.78,.03,1.56,.03,2.34-.01,1.59-.06,3.19-.06,4.78,0,.37,0,.74-.07,1.1-.06,.32-.33,.58-.36,.86-.02,.21,4.14,.14,4.55,.06,.3-.37,.21-.8,.2-1.22Z"></path><path class="d" d="M143.53,30.63c1.19,.04,2.03-.77,2.04-1.98,.07-1.11-1.01-1.99-1.98-1.97-1.12,.02-1.93,.76-1.93,1.88,0,.97,.57,2.04,1.87,2.07Z"></path></g><path class="d" d="M156.05,37.03c-.07-1-.13-2.11-.22-3.21-.05-.62-.28-1.2-.62-1.73-.43-.68-1.09-.72-1.62-.13-.31,.35-.49,.76-.62,1.21-.41,1.45-.59,2.93-.55,4.43,.02,.68,.11,1.36,.23,2.03,.08,.44,.22,.89,.41,1.3,.16,.35,.4,.67,.65,.96,.29,.33,.7,.36,1.06,.12,.21-.14,.41-.32,.57-.52,.35-.45,.51-.98,.54-1.54,.06-.94,.11-1.88,.16-2.92h0Zm-7.22-.16c0-1.07,.19-1.93,.51-2.75,1.05-2.64,3.86-3.59,5.77-3.1,1.15,.3,2.26,.64,3.11,1.51,.34,.35,.69,.72,.9,1.14,.98,1.95,1.2,3.96,.31,6.01-.54,1.24-1.46,2.13-2.73,2.64-1.04,.42-2.1,.71-3.23,.53-1.92-.3-3.29-1.35-4.04-3.13-.4-.96-.57-1.99-.59-2.86Z"></path></g><path class="e" d="M42.09,26.59c0,20.21-30.99,20.21-30.99,0,0-20.23,30.99-20.23,30.99,0h0Zm4.32,17.41l-2.42-9.65c-.11-.43-.7-.49-.88-.09-1.57,3.36-4.14,6.18-7.33,8.05-.38,.23-.27,.81,.17,.87l9.93,1.41c.34,.04,.61-.26,.53-.59h0Zm-39.63-.24l2.42-9.65c.1-.43,.69-.49,.88-.09,1.56,3.35,4.14,6.17,7.33,8.05,.37,.21,.26,.8-.18,.87l-9.93,1.4c-.33,.04-.61-.26-.52-.58h0Zm20.12,9.2l5.56-8.26c.24-.36-.11-.84-.53-.71-3.54,1.08-7.36,1.06-10.88-.06-.43-.14-.78,.34-.53,.71l5.6,8.32c.18,.27,.6,.27,.78,0h0ZM46.41,9.17l-2.42,9.65c-.11,.43-.7,.49-.88,.09-1.57-3.35-4.14-6.17-7.33-8.05-.38-.21-.27-.8,.17-.87l9.93-1.4c.34-.04,.61,.26,.53,.58h0Zm-39.63,.24l2.42,9.67c.1,.42,.69,.47,.88,.08,1.56-3.35,4.14-6.17,7.33-8.04,.37-.23,.26-.81-.18-.87l-9.93-1.41c-.33-.04-.61,.26-.52,.58h0ZM.21,27.15l8.26,5.55c.36,.25,.84-.1,.71-.52-1.09-3.54-1.06-7.36,.06-10.88,.14-.43-.34-.78-.71-.54L.21,26.37c-.28,.18-.28,.59,0,.78H.21Zm52.75-.25l-8.25,5.56c-.37,.25-.85-.11-.71-.53,1.07-3.53,1.05-7.35-.07-10.88-.14-.42,.35-.78,.71-.53l8.32,5.6c.28,.19,.28,.6,0,.78h0ZM26.9,.2l5.56,8.26c.24,.36-.11,.85-.53,.71-3.54-1.07-7.36-1.05-10.88,.07-.43,.12-.78-.35-.53-.71L26.12,.2c.18-.27,.6-.27,.78,0h0Z"></path></g></g></g></svg> 